<?xml version="1.0" standalone="no"?>
<!DOCTYPE svg PUBLIC "-//W3C//DTD SVG 20010904//EN"
 "http://www.w3.org/TR/2001/REC-SVG-20010904/DTD/svg10.dtd">
<svg version="1.0" xmlns="http://www.w3.org/2000/svg"
 width="1117.000000pt" height="256.000000pt" viewBox="0 0 1117.000000 256.000000"
 preserveAspectRatio="xMidYMid meet">

<g transform="translate(0.000000,256.000000) scale(0.100000,-0.100000)"
fill="#000000" stroke="none">
<path d="M6100 2475 l0 -85 110 0 110 0 0 -280 0 -280 105 0 105 0 0 280 0
280 110 0 110 0 0 85 0 85 -325 0 -325 0 0 -85z"/>
<path d="M6830 2195 l0 -365 105 0 105 0 0 140 0 140 125 0 125 0 0 -140 0
-140 105 0 105 0 0 365 0 365 -105 0 -105 0 0 -130 0 -130 -125 0 -125 0 0
130 0 130 -105 0 -105 0 0 -365z"/>
<path d="M7620 2195 l0 -365 300 0 300 0 0 95 0 95 -195 0 -195 0 0 50 0 50
175 0 175 0 0 85 0 85 -175 0 -175 0 0 50 0 50 195 0 195 0 0 85 0 85 -300 0
-300 0 0 -365z"/>
<path d="M6294 1652 c-28 -10 -63 -26 -77 -35 -90 -59 -123 -203 -67 -294 34
-57 91 -84 289 -140 69 -19 93 -42 75 -70 -32 -51 -209 -23 -288 46 -17 15
-21 13 -63 -34 -24 -27 -51 -61 -60 -74 -16 -22 -16 -24 8 -42 44 -34 139 -77
196 -89 31 -7 100 -10 153 -8 84 3 102 7 150 34 97 54 137 145 116 259 -15 77
-98 135 -254 174 -110 29 -132 39 -132 66 0 37 24 48 90 43 40 -3 78 -14 120
-36 l61 -31 47 65 c26 36 47 73 47 82 0 22 -108 76 -182 91 -81 16 -170 13
-229 -7z"/>
<path d="M7769 1656 c-248 -67 -358 -369 -212 -584 83 -122 233 -185 390 -162
129 18 233 90 294 202 29 55 34 74 37 154 7 145 -38 246 -144 326 -94 71 -243
97 -365 64z m184 -190 c74 -31 125 -125 113 -209 -13 -87 -73 -147 -155 -155
-66 -6 -93 2 -137 40 -46 40 -64 83 -64 148 0 136 124 226 243 176z"/>
<path d="M6820 1290 l0 -370 300 0 300 0 0 90 0 90 -195 0 -195 0 0 55 0 55
175 0 175 0 0 85 0 85 -175 0 -175 0 0 50 0 50 195 0 196 0 -3 88 -3 87 -297
3 -298 2 0 -370z"/>
<path d="M7880 741 c-135 -44 -209 -172 -169 -292 26 -77 95 -122 251 -164 96
-26 138 -47 138 -70 0 -66 -158 -58 -271 14 l-47 29 -57 -70 c-56 -67 -57 -70
-39 -89 10 -11 52 -36 93 -57 73 -36 78 -37 204 -41 145 -3 192 8 254 62 56
50 76 98 71 181 -6 118 -54 163 -228 211 -136 37 -160 49 -160 80 0 54 108 54
213 0 27 -14 52 -25 56 -25 4 0 29 32 56 71 l49 72 -30 23 c-57 47 -130 67
-249 70 -60 2 -121 0 -135 -5z"/>
<path d="M6142 373 l3 -368 103 -3 102 -3 0 141 0 140 125 0 124 0 3 -138 3
-137 105 0 105 0 3 368 2 367 -110 0 -110 0 0 -135 0 -135 -125 0 -125 0 0
135 0 135 -105 0 -105 0 2 -367z"/>
<path d="M6930 485 c0 -231 2 -259 20 -308 25 -67 77 -122 144 -153 44 -21 66
-24 167 -24 148 0 196 15 264 84 79 79 85 108 85 407 l0 249 -104 0 -105 0 -3
-239 c-3 -272 -6 -282 -86 -311 -37 -13 -47 -13 -84 0 -80 29 -83 39 -86 311
l-3 239 -105 0 -104 0 0 -255z"/>
<path d="M8340 650 l0 -90 110 0 110 0 0 -280 0 -280 105 0 105 0 0 280 0 280
110 0 110 0 0 90 0 90 -325 0 -325 0 0 -90z"/>
<path d="M9070 370 l0 -370 280 0 280 0 0 95 0 95 -175 0 -175 0 0 275 0 275
-105 0 -105 0 0 -370z"/>
<path d="M9710 370 l0 -370 300 0 300 0 0 95 0 95 -195 0 -195 0 0 50 0 50
175 0 175 0 0 85 0 85 -175 0 -175 0 0 50 0 50 190 0 190 0 0 90 0 90 -295 0
-295 0 0 -370z"/>
<path d="M10400 371 l0 -371 105 0 105 0 0 110 0 110 44 0 43 0 73 -110 73
-110 119 0 c92 0 119 3 115 13 -2 6 -41 65 -85 130 l-81 117 28 14 c81 42 130
147 117 248 -13 94 -54 150 -141 190 -47 22 -65 23 -282 26 l-233 3 0 -370z
m400 171 c26 -12 36 -24 38 -46 9 -79 -30 -106 -153 -106 l-75 0 0 85 0 85 78
0 c53 0 88 -5 112 -18z"/>
</g>
</svg>
